<svg xmlns="http://www.w3.org/2000/svg" viewBox="0 0 1280 720" role="img" aria-labelledby="title desc">
<title id="title">Карта сайта climatcomfort39.ru</title><desc id="desc">Иерархия основных страниц сайта: главная, решения, партнёрам, о компании, журнал и контакты.</desc>
<defs><linearGradient id="g" x1="0" x2="1"><stop stop-color="#10211f"/><stop offset="1" stop-color="#285247"/></linearGradient><filter id="s"><feDropShadow dx="0" dy="8" stdDeviation="12" flood-opacity=".16"/></filter></defs>
<rect width="1280" height="720" rx="28" fill="#f7f3ec"/>
<text x="70" y="78" font-family="Arial, sans-serif" fill="#82908a" font-size="16" font-weight="700" letter-spacing="3">ИНФОРМАЦИОННАЯ АРХИТЕКТУРА</text><text x="70" y="132" font-family="Georgia, serif" fill="#14342e" font-size="42">Карта сайта climatcomfort39.ru</text>
<g fill="none" stroke="#b9c8c0" stroke-width="3" stroke-linecap="round"><path d="M640 243V286M205 370H1070M205 370V420M420 370V420M640 370V420M855 370V420M1070 370V420"/><path d="M205 542v38m0 0h92m-92 0h-92M420 542v38m0 0h100m-100 0h-100M640 542v38m0 0h110m-110 0h-110"/></g>
<g filter="url(#s)"><rect x="500" y="165" width="280" height="78" rx="18" fill="url(#g)"/><text x="640" y="197" text-anchor="middle" font-family="Arial, sans-serif" font-size="14" font-weight="700" fill="#cfe1d8" letter-spacing="2">ГЛАВНАЯ</text><text x="640" y="224" text-anchor="middle" font-family="Georgia, serif" font-size="21" fill="#fffaf2">Позиционирование + CTA</text></g>
<g font-family="Arial, sans-serif" text-anchor="middle" filter="url(#s)"><g><rect x="93" y="420" width="224" height="122" rx="16" fill="#fff"/><text x="205" y="452" fill="#14342e" font-size="20" font-weight="700">Решения</text><text x="205" y="480" fill="#687a72" font-size="14">Кондиционирование</text><text x="205" y="503" fill="#687a72" font-size="14">Вентиляция · отопление</text><text x="205" y="526" fill="#687a72" font-size="14">Автоматика · ОВКВ-проект</text></g><g><rect x="308" y="420" width="224" height="122" rx="16" fill="#fff"/><text x="420" y="452" fill="#14342e" font-size="20" font-weight="700">Партнёрам</text><text x="420" y="480" fill="#687a72" font-size="14">Дизайнерам интерьера</text><text x="420" y="503" fill="#687a72" font-size="14">Проектным организациям</text><text x="420" y="526" fill="#687a72" font-size="14">Бриф и порядок работы</text></g><g><rect x="528" y="420" width="224" height="122" rx="16" fill="#fff"/><text x="640" y="452" fill="#14342e" font-size="20" font-weight="700">О компании</text><text x="640" y="480" fill="#687a72" font-size="14">Команда и компетенции</text><text x="640" y="503" fill="#687a72" font-size="14">Подход к качеству</text><text x="640" y="526" fill="#687a72" font-size="14">Процесс реализации</text></g><g><rect x="743" y="420" width="224" height="122" rx="16" fill="#fff"/><text x="855" y="452" fill="#14342e" font-size="20" font-weight="700">Журнал</text><text x="855" y="480" fill="#687a72" font-size="14">Статьи и ответы</text><text x="855" y="503" fill="#687a72" font-size="14">Гайды для владельца</text><text x="855" y="526" fill="#687a72" font-size="14">SEO / AIEO-хаб</text></g><g><rect x="958" y="420" width="224" height="122" rx="16" fill="#fff"/><text x="1070" y="452" fill="#14342e" font-size="20" font-weight="700">Контакты</text><text x="1070" y="480" fill="#687a72" font-size="14">Заявка на расчёт</text><text x="1070" y="503" fill="#687a72" font-size="14">География работ</text><text x="1070" y="526" fill="#687a72" font-size="14">Каналы связи</text></g></g>
<g font-family="Arial, sans-serif" text-anchor="middle" filter="url(#s)"><g><rect x="61" y="618" width="144" height="50" rx="12" fill="#e3eee8"/><text x="133" y="649" fill="#275646" font-size="15">Кондиционеры</text></g><g><rect x="205" y="618" width="144" height="50" rx="12" fill="#e3eee8"/><text x="277" y="649" fill="#275646" font-size="15">Вентиляция</text></g><g><rect x="348" y="618" width="144" height="50" rx="12" fill="#e3eee8"/><text x="420" y="649" fill="#275646" font-size="15">Отопление</text></g><g><rect x="492" y="618" width="144" height="50" rx="12" fill="#e3eee8"/><text x="564" y="649" fill="#275646" font-size="15">Автоматика</text></g><g><rect x="615" y="618" width="144" height="50" rx="12" fill="#e3eee8"/><text x="687" y="649" fill="#275646" font-size="15">ОВКВ-проект</text></g><g><rect x="759" y="618" width="144" height="50" rx="12" fill="#f0e5d3"/><text x="831" y="649" fill="#855e2e" font-size="15">Статья 1</text></g><g><rect x="903" y="618" width="144" height="50" rx="12" fill="#f0e5d3"/><text x="975" y="649" fill="#855e2e" font-size="15">Статья 2</text></g></g>
</svg>